<svg width="42" height="42" viewBox="0 0 42 42" fill="none" xmlns="http://www.w3.org/2000/svg">
<path d="M21 0C9.40313 0 0 9.40313 0 21C0 32.5969 9.40313 42 21 42C32.5969 42 42 32.5969 42 21C42 9.40313 32.5969 0 21 0ZM30.8672 28.7063C30.3281 28.7719 28.7625 26.2359 28.7625 26.2359C28.7625 27.7031 28.0031 29.6203 26.3672 31.0078C27.1594 31.2516 28.9406 31.9078 28.5188 32.6203C28.1766 33.1969 22.6312 32.9906 21.0281 32.8078C19.425 32.9859 13.8797 33.1969 13.5375 32.6203C13.1109 31.9078 14.8922 31.2516 15.6844 31.0078C14.0438 29.625 13.2891 27.7078 13.2891 26.2359C13.2891 26.2359 11.7234 28.7719 11.1844 28.7063C10.9313 28.6734 10.6031 27.3188 11.625 24.0328C12.1078 22.4859 12.6563 21.1969 13.5094 19.0734C13.3641 13.5938 15.6328 8.99531 21.0281 8.99531C26.3672 8.99531 28.6828 13.5 28.5469 19.0734C29.3953 21.1922 29.9484 22.4859 30.4313 24.0328C31.4484 27.3188 31.1156 28.6781 30.8672 28.7063Z" fill="#3182CE"/>
</svg>
