<svg width="17" height="13" viewBox="0 0 17 13" fill="none" xmlns="http://www.w3.org/2000/svg">
<path d="M5.526 13C11.564 13 14.867 7.99696 14.867 3.66596C14.867 3.52596 14.867 3.38396 14.861 3.24396C15.5041 2.77845 16.0591 2.20211 16.5 1.54196C15.8993 1.80681 15.2628 1.98137 14.611 2.05996C15.2975 1.6496 15.8117 1.00393 16.058 0.242961C15.413 0.625085 14.707 0.893334 13.971 1.03596C13.4762 0.508984 12.8214 0.159878 12.1081 0.0427182C11.3948 -0.074442 10.6627 0.0468822 10.0253 0.387898C9.38796 0.728914 8.88081 1.27059 8.58245 1.92902C8.28409 2.58745 8.21118 3.32589 8.375 4.02996C7.06974 3.96451 5.79282 3.62543 4.62704 3.0347C3.46127 2.44398 2.43268 1.6148 1.608 0.600961C1.18934 1.32404 1.06157 2.17936 1.25065 2.99323C1.43972 3.80709 1.93145 4.51849 2.626 4.98296C2.10554 4.96528 1.59652 4.82552 1.14 4.57496V4.61996C1.1409 5.37744 1.40331 6.11138 1.88287 6.69772C2.36244 7.28406 3.02975 7.68683 3.772 7.83796C3.49026 7.91558 3.19923 7.95427 2.907 7.95296C2.70098 7.95359 2.49538 7.9345 2.293 7.89596C2.50279 8.54802 2.91127 9.11813 3.46125 9.52644C4.01122 9.93475 4.67513 10.1608 5.36 10.173C4.19656 11.0868 2.7594 11.5824 1.28 11.58C1.01932 11.5811 0.758823 11.566 0.5 11.535C2.00151 12.4922 3.7453 13.0005 5.526 13Z" fill="#3182CE"/>
</svg>
