<svg width="16" height="16" viewBox="0 0 16 16" fill="none" xmlns="http://www.w3.org/2000/svg">
<g clip-path="url(#clip0_2363_134)">
<mask id="mask0_2363_134" style="mask-type:luminance" maskUnits="userSpaceOnUse" x="0" y="0" width="16" height="16">
<path d="M15.7046 6.54546H8.25V9.63637H12.5409C12.1409 11.6 10.4682 12.7273 8.25 12.7273C5.63182 12.7273 3.52273 10.6182 3.52273 8C3.52273 5.38182 5.63182 3.27273 8.25 3.27273C9.37728 3.27273 10.3955 3.67273 11.1955 4.32727L13.5227 2C12.1046 0.763637 10.2864 0 8.25 0C3.81364 0 0.25 3.56364 0.25 8C0.25 12.4364 3.81364 16 8.25 16C12.25 16 15.8864 13.0909 15.8864 8C15.8864 7.52728 15.8136 7.01818 15.7046 6.54546Z" fill="white"/>
</mask>
<g mask="url(#mask0_2363_134)">
<path d="M-0.477295 12.7274V3.27283L5.70453 8.0001L-0.477295 12.7274Z" fill="#FBBC05"/>
</g>
<mask id="mask1_2363_134" style="mask-type:luminance" maskUnits="userSpaceOnUse" x="0" y="0" width="16" height="16">
<path d="M15.7046 6.54546H8.25V9.63637H12.5409C12.1409 11.6 10.4682 12.7273 8.25 12.7273C5.63182 12.7273 3.52273 10.6182 3.52273 8C3.52273 5.38182 5.63182 3.27273 8.25 3.27273C9.37728 3.27273 10.3955 3.67273 11.1955 4.32727L13.5227 2C12.1046 0.763637 10.2864 0 8.25 0C3.81364 0 0.25 3.56364 0.25 8C0.25 12.4364 3.81364 16 8.25 16C12.25 16 15.8864 13.0909 15.8864 8C15.8864 7.52728 15.8136 7.01818 15.7046 6.54546Z" fill="white"/>
</mask>
<g mask="url(#mask1_2363_134)">
<path d="M-0.477295 3.27283L5.70453 8.0001L8.24998 5.78192L16.9773 4.36374V-0.727173H-0.477295V3.27283Z" fill="#EA4335"/>
</g>
<mask id="mask2_2363_134" style="mask-type:luminance" maskUnits="userSpaceOnUse" x="0" y="0" width="16" height="16">
<path d="M15.7046 6.54546H8.25V9.63637H12.5409C12.1409 11.6 10.4682 12.7273 8.25 12.7273C5.63182 12.7273 3.52273 10.6182 3.52273 8C3.52273 5.38182 5.63182 3.27273 8.25 3.27273C9.37728 3.27273 10.3955 3.67273 11.1955 4.32727L13.5227 2C12.1046 0.763637 10.2864 0 8.25 0C3.81364 0 0.25 3.56364 0.25 8C0.25 12.4364 3.81364 16 8.25 16C12.25 16 15.8864 13.0909 15.8864 8C15.8864 7.52728 15.8136 7.01818 15.7046 6.54546Z" fill="white"/>
</mask>
<g mask="url(#mask2_2363_134)">
<path d="M-0.477295 12.7274L10.4318 4.36374L13.3045 4.72737L16.9773 -0.727173V16.7274H-0.477295V12.7274Z" fill="#34A853"/>
</g>
<mask id="mask3_2363_134" style="mask-type:luminance" maskUnits="userSpaceOnUse" x="0" y="0" width="16" height="16">
<path d="M15.7046 6.54546H8.25V9.63637H12.5409C12.1409 11.6 10.4682 12.7273 8.25 12.7273C5.63182 12.7273 3.52273 10.6182 3.52273 8C3.52273 5.38182 5.63182 3.27273 8.25 3.27273C9.37728 3.27273 10.3955 3.67273 11.1955 4.32727L13.5227 2C12.1046 0.763637 10.2864 0 8.25 0C3.81364 0 0.25 3.56364 0.25 8C0.25 12.4364 3.81364 16 8.25 16C12.25 16 15.8864 13.0909 15.8864 8C15.8864 7.52728 15.8136 7.01818 15.7046 6.54546Z" fill="white"/>
</mask>
<g mask="url(#mask3_2363_134)">
<path d="M16.9773 16.7274L5.70455 8.0001L4.25 6.90919L16.9773 3.27283V16.7274Z" fill="#4285F4"/>
</g>
</g>
<defs>
<clipPath id="clip0_2363_134">
<rect width="16" height="16" fill="white"/>
</clipPath>
</defs>
</svg>
